<svg width="203px" height="143px" viewBox="0 0 203 143" version="1.1" xmlns="http://www.w3.org/2000/svg" xmlns:xlink="http://www.w3.org/1999/xlink">
    <title>Rectangle</title>
    <g id="Homepage" stroke="none" stroke-width="1" fill="none" fill-rule="evenodd">
        <g id="Accueil-1" transform="translate(-435.000000, -404.000000)">
            <path d="M630,405 C631.932997,405 633.682997,405.783502 634.949747,407.050253 C636.216498,408.317003 637,410.067003 637,412 L637,412 L637,516 C637,517.932997 636.216498,519.682997 634.949747,520.949747 C633.682997,522.216498 631.932997,523 630,523 L630,523 L477.099999,523 L452.196437,544.250842 L452.196437,523 L443,523 C441.067003,523 439.317003,522.216498 438.050253,520.949747 C436.783502,519.682997 436,517.932997 436,516 L436,516 L436,412 C436,410.067003 436.783502,408.317003 438.050253,407.050253 C439.317003,405.783502 441.067003,405 443,405 L443,405 Z" id="Rectangle" stroke="#333536" stroke-width="2" fill="#4E5964"></path>
        </g>
    </g>
</svg>